<svg xmlns="http://www.w3.org/2000/svg" width="1200" height="600" viewBox="0 0 1200 600">
  <defs>
    <linearGradient id="g1" x1="0" x2="1">
      <stop offset="0%" stop-color="#FF5F6D"/>
      <stop offset="50%" stop-color="#FFC371"/>
      <stop offset="100%" stop-color="#47CACC"/>
    </linearGradient>
    <linearGradient id="g2" x1="0" x2="1">
      <stop offset="0%" stop-color="#7F7FD5"/>
      <stop offset="100%" stop-color="#91EAE4"/>
    </linearGradient>
  </defs>
  <rect width="1200" height="600" fill="#0f172a" />
  <g transform="translate(100,60)">
    <ellipse cx="300" cy="150" rx="320" ry="120" fill="url(#g1)" opacity="0.85"/>
    <ellipse cx="650" cy="250" rx="260" ry="100" fill="url(#g2)" opacity="0.8"/>
    <path d="M150 220 C 240 120, 420 120, 520 220 S 760 320, 860 220" stroke="#ffffff" stroke-opacity="0.12" stroke-width="8" fill="none"/>
    <g transform="translate(60,30)">
      <rect x="0" y="0" width="300" height="160" rx="16" fill="#ffffff" opacity="0.06"/>
      <rect x="320" y="20" width="380" height="120" rx="12" fill="#ffffff" opacity="0.04"/>
      <circle cx="560" cy="40" r="8" fill="#fff" opacity="0.08"/>
      <g fill="#fff" opacity="0.9" transform="translate(12,20)">
        <rect x="16" y="12" width="120" height="10" rx="4" fill="#ffffff" opacity="0.12"/>
        <rect x="16" y="36" width="180" height="10" rx="4" fill="#ffffff" opacity="0.09"/>
        <rect x="16" y="60" width="90" height="10" rx="4" fill="#ffffff" opacity="0.07"/>
      </g>
    </g>
  </g>
  <g fill="#fff" opacity="0.95" transform="translate(860,380)">
    <text x="0" y="0" font-size="28" font-family="Arial" font-weight="700">Architecture</text>
    <text x="0" y="34" font-size="14" font-family="Arial">Design • Cloud • Automation</text>
  </g>
</svg>
